<svg xmlns="http://www.w3.org/2000/svg" width="13" height="14" viewBox="0 0 13 14" fill="none">
  <path d="M3.5 14Q3.88281 14 4.12891 13.7539Q4.375 13.5078 4.375 13.125L4.375 12.25L7.875 12.25L7.875 13.125Q7.875 13.5078 8.12109 13.7539Q8.36719 14 8.75 14Q9.13281 14 9.37891 13.7539Q9.625 13.5078 9.625 13.125L9.625 12.25L10.9375 12.25Q11.4844 12.2227 11.8672 11.8672Q12.2227 11.4844 12.25 10.9375L12.25 9.625L0 9.625L0 10.9375Q0.0273438 11.4844 0.382812 11.8672Q0.765625 12.2227 1.3125 12.25L2.625 12.25L2.625 13.125Q2.625 13.5078 2.87109 13.7539Q3.11719 14 3.5 14ZM0 8.75L12.25 8.75L0 8.75L12.25 8.75L12.25 1.3125Q12.2227 0.765625 11.8672 0.382812Q11.4844 0.0273438 10.9375 0L1.3125 0Q0.765625 0.0273438 0.382812 0.382812Q0.0273438 0.765625 0 1.3125L0 8.75ZM8.99609 5.66016Q9.37891 6.125 8.99609 6.58984Q8.53125 6.97266 8.06641 6.58984L5.46875 3.99219L4.18359 5.27734Q3.71875 5.66016 3.25391 5.27734Q2.87109 4.8125 3.25391 4.34766L5.00391 2.59766Q5.46875 2.21484 5.93359 2.59766L8.99609 5.66016Z" fill="#FF80FF"/>
</svg>
