<svg xmlns="http://www.w3.org/2000/svg" width="13" height="14" viewBox="0 0 13 14" fill="none">
  <path d="M4.97064 0.142026C5.8597 -0.0440802 6.78843 -0.0499535 7.6979 0.140193C7.8159 0.913226 8.27117 1.62757 9.0011 2.04898C9.73097 2.47038 10.5773 2.50752 11.3057 2.22316C11.9252 2.91575 12.3844 3.72298 12.6678 4.58597C12.0581 5.07468 11.6678 5.82563 11.6678 6.66776C11.6678 7.51043 12.0586 8.26176 12.6688 8.75043C12.528 9.17736 12.3416 9.59643 12.1079 10.0011C11.8742 10.4058 11.6046 10.7768 11.3052 11.1122C10.5769 10.828 9.73083 10.8653 9.0011 11.2866C8.27177 11.7076 7.81663 12.4212 7.69817 13.1936C6.80917 13.3796 5.88043 13.3855 4.97092 13.1954C4.85295 12.4224 4.39764 11.708 3.66775 11.2866C2.93786 10.8652 2.09156 10.828 1.36311 11.1124C0.74368 10.4198 0.284407 9.61256 0.00106001 8.74956C0.610713 8.26089 1.00109 7.50989 1.00109 6.66776C1.00109 5.82516 0.61026 5.07381 0 4.58512C0.140853 4.15817 0.32726 3.73915 0.560913 3.33445C0.794573 2.92974 1.06425 2.5588 1.36357 2.22334C2.09192 2.5075 2.93801 2.47029 3.66775 2.04898C4.39706 1.62791 4.85223 0.91436 4.97064 0.142026ZM6.33443 8.66776C7.43897 8.66776 8.33443 7.77236 8.33443 6.66776C8.33443 5.56323 7.43897 4.66778 6.33443 4.66778C5.22983 4.66778 4.33441 5.56323 4.33441 6.66776C4.33441 7.77236 5.22983 8.66776 6.33443 8.66776Z" fill="#1F2937"/>
</svg>
