<svg xmlns="http://www.w3.org/2000/svg" width="14" height="14" viewBox="0 0 14 14" fill="none">
  <path d="M5.22266 12.1133L6.15234 10.5L5.22266 12.1133L6.15234 10.5L6.125 10.5L4.15625 10.5Q3.69141 10.5 3.39062 10.8281Q3.0625 11.1289 3.0625 11.5938Q3.0625 12.0586 3.39062 12.3594Q3.69141 12.6875 4.15625 12.6875L4.21094 12.6875Q4.86719 12.6602 5.22266 12.1133ZM1.75 11.5938Q1.75 10.9922 2.02344 10.5L0.875 10.5Q0.492188 10.5 0.246094 10.2539Q0 10.0078 0 9.625L0 7.875Q0 7.49219 0.246094 7.24609Q0.492188 7 0.875 7L13.125 7Q13.5078 7 13.7539 7.24609Q14 7.49219 14 7.875L14 9.625Q14 10.0078 13.7539 10.2539Q13.5078 10.5 13.125 10.5L11.9766 10.5Q12.25 10.9922 12.25 11.5938Q12.2227 12.6055 11.5391 13.2891Q10.8555 13.9727 9.84375 14L9.78906 14Q8.39453 13.9453 7.65625 12.7969L7 11.6484L6.34375 12.7695Q5.60547 13.9453 4.21094 14L4.15625 14Q3.14453 13.9727 2.46094 13.2891Q1.77734 12.6055 1.75 11.5938ZM10.9375 11.5938Q10.9375 11.1289 10.6094 10.8281Q10.3086 10.5 9.84375 10.5L7.875 10.5L7.84766 10.5L8.80469 12.1133Q9.13281 12.6602 9.78906 12.6875L9.84375 12.6875Q10.3086 12.6875 10.6094 12.3594Q10.9375 12.0586 10.9375 11.5938ZM0.875 6.125L0.875 1.3125L0.875 6.125L0.875 1.3125Q0.902344 0.765625 1.25781 0.382812Q1.64062 0.0273438 2.1875 0L6.125 0L6.125 6.125L0.875 6.125ZM7.875 0L11.8125 0L7.875 0L11.8125 0Q12.3594 0.0273438 12.7422 0.382812Q13.0977 0.765625 13.125 1.3125L13.125 6.125L7.875 6.125L7.875 0Z" fill="#7C3AED"/>
</svg>
