<svg xmlns="http://www.w3.org/2000/svg" width="14" height="14" viewBox="0 0 14 14" fill="none">
  <path d="M14 11.8125Q13.9727 11.0742 12.9609 10.5Q11.7031 9.81641 9.59766 9.65234Q9.46094 9.73438 9.29688 9.78906Q7.62891 10.4727 5.25 10.5Q4.92188 10.5 4.59375 10.4727L4.53906 10.5Q3.52734 11.0742 3.5 11.8125Q3.55469 12.7422 5.03125 13.3711Q6.50781 13.9727 8.75 14Q10.9922 13.9727 12.4688 13.3711Q13.9453 12.7422 14 11.8125ZM4.40234 9.59766Q4.8125 9.625 5.25 9.625Q6.53516 9.625 7.60156 9.37891Q8.69531 9.16016 9.43359 8.77734Q10.4727 8.20312 10.5 7.4375Q10.5 7.27344 10.4453 7.10938Q10.2266 6.5625 9.48828 6.15234Q9.46094 6.125 9.46094 6.125Q8.72266 5.71484 7.62891 5.49609Q6.5625 5.25 5.25 5.25Q2.73438 5.27734 1.20312 6.04297Q1.12109 6.09766 1.03906 6.125Q0.0273438 6.69922 0 7.4375Q0.0273438 8.17578 0.984375 8.72266Q1.94141 9.26953 3.5 9.48828Q3.9375 9.57031 4.40234 9.59766ZM11.375 7.4375Q11.3203 8.33984 10.7188 8.88672Q11.8945 9.07812 12.7969 9.46094Q13.4805 9.73438 14 10.1445L14 9.1875Q13.9727 8.36719 12.7969 7.79297Q12.1953 7.49219 11.375 7.30078Q11.375 7.35547 11.375 7.4375ZM10.5 4.8125Q10.4727 4.07422 9.46094 3.5Q9.40625 3.47266 9.35156 3.44531Q9.32422 3.44531 9.29688 3.41797Q7.76562 2.65234 5.25 2.625Q3.9375 2.625 2.87109 2.87109Q1.77734 3.08984 1.03906 3.5Q0.0273438 4.07422 0 4.8125L0 5.76953Q0.519531 5.35938 1.20312 5.08594Q2.87109 4.40234 5.25 4.375Q7.62891 4.40234 9.29688 5.08594Q9.625 5.22266 9.92578 5.38672Q10.1719 5.52344 10.3906 5.6875Q10.418 5.71484 10.4727 5.74219Q10.4727 5.76953 10.5 5.76953L10.5 5.6875L10.5 5.52344L10.5 4.8125ZM11.375 4.8125L11.375 5.6875L11.375 4.8125L11.375 5.6875L11.375 6.39844Q12.168 6.5625 12.7969 6.83594Q13.4805 7.10938 14 7.51953L14 6.5625Q14 6.125 13.5898 5.71484Q12.8789 5.03125 11.375 4.67578Q11.375 4.73047 11.375 4.8125ZM5.25 1.75Q7.62891 1.77734 9.29688 2.46094Q9.98047 2.73438 10.5 3.14453L10.5 2.1875Q10.4453 1.25781 8.96875 0.628906Q7.49219 0.0273438 5.25 0Q3.00781 0.0273438 1.53125 0.628906Q0.0546875 1.25781 0 2.1875L0 3.14453Q0.519531 2.73438 1.20312 2.46094Q2.87109 1.77734 5.25 1.75Z" fill="#0303B8"/>
</svg>
