<svg xmlns="http://www.w3.org/2000/svg" width="25" height="26" viewBox="0 0 25 26" fill="none">
  <path d="M23.0769 9.53171L23.0769 1.34953C23.0769 0.604211 22.5029 0 21.7949 0L20.5128 0C17.9762 2.67023 13.2086 4.16637 10.2564 4.87559L10.2564 19.4159C13.2086 20.1251 17.9762 21.6213 20.5128 24.2915L21.7949 24.2915C22.5029 24.2915 23.0769 23.6873 23.0769 22.942L23.0769 14.7598C24.1828 14.4602 25 13.4034 25 12.1458C25 10.8881 24.1828 9.83131 23.0769 9.53171ZM2.5641 5.39811C1.14799 5.39811 0 6.60652 0 8.09717L0 16.1943C0 17.685 1.14799 18.8934 2.5641 18.8934L3.84615 18.8934L5.1282 25.641L7.69231 25.641L7.69231 5.39811L2.5641 5.39811Z" fill="rgba(3, 3, 184, 0.1)"/>
</svg>
