<svg xmlns="http://www.w3.org/2000/svg" width="80" height="19" viewBox="0 0 80 19" fill="none"> <g transform="translate(0, 4.18)"> <path transform="translate(0, 0.21)" fill="#FFFFFF" d="M4.74744 2.21187C4.70528 1.84189 4.53119 1.55501 4.2238 1.35058C3.91846 1.14615 3.53219 1.04293 3.06772 1.04293C2.56856 1.04293 2.17209 1.15554 1.87898 1.37941C1.5852 1.60327 1.43831 1.88546 1.43831 2.22729C1.43831 2.48199 1.5172 2.68977 1.67429 2.84997C1.83138 3.01016 2.0252 3.13617 2.25369 3.22666C2.48219 3.31714 2.70185 3.39087 2.91334 3.44516L3.70628 3.64892C3.96538 3.71126 4.22993 3.79638 4.50263 3.90429C4.77465 4.01288 5.02695 4.15296 5.25952 4.32656C5.4921 4.50016 5.6798 4.71531 5.82397 4.97337C5.96814 5.23075 6.03954 5.53974 6.03954 5.899C6.03954 6.34942 5.92121 6.75158 5.68524 7.10615C5.44926 7.46072 5.10719 7.73754 4.66108 7.93996C4.21428 8.14171 3.67296 8.24225 3.03575 8.24225C2.1272 8.24225 1.40431 8.03312 0.866387 7.61354C0.328465 7.19395 0.0401231 6.62289 0 5.89833L1.22885 5.89833C1.26626 6.33266 1.45735 6.65573 1.8035 6.86686C2.15033 7.07733 2.55768 7.18323 3.02827 7.18323C3.54919 7.18323 3.97831 7.06459 4.31833 6.82799C4.65768 6.59071 4.82701 6.2777 4.82701 5.88694C4.82701 5.64966 4.75901 5.45462 4.623 5.30314C4.48698 5.15031 4.30337 5.02565 4.07215 4.92779C3.84093 4.82993 3.5798 4.74413 3.28941 4.66772L2.33054 4.40967C1.67769 4.2354 1.16289 3.97869 0.78546 3.64088C0.408031 3.30306 0.217617 2.85466 0.217617 2.297C0.217617 1.83653 0.344786 1.4337 0.598446 1.08985C0.852105 0.746005 1.19621 0.478569 1.63145 0.287544C2.066 0.095848 2.5536 0 3.0956 0C3.64508 0 4.12996 0.0951778 4.55227 0.285533C4.97322 0.475218 5.30509 0.737291 5.54855 1.07041C5.79133 1.40354 5.91849 1.78358 5.92938 2.2112L4.74744 2.21187L4.74744 2.21187Z"/> <path transform="translate(7.02, 2.24)" fill="#FFFFFF" d="M2.89702 6.19861C2.29994 6.19861 1.78446 6.07126 1.35194 5.81589C0.918071 5.56119 0.584845 5.2026 0.350907 4.74011C0.116969 4.2783 0 3.7374 0 3.1174C0 2.50277 0.116969 1.9612 0.350907 1.49268C0.584845 1.02416 0.91195 0.658201 1.33358 0.394786C1.75453 0.131372 2.24825 0 2.81338 0C3.27377 0 3.70832 0.10054 4.11976 0.30296C4.53051 0.504709 4.86509 0.825766 5.12215 1.26747C5.37989 1.70851 5.50842 2.29097 5.50842 3.01485L5.50842 3.42841L1.18125 3.42841C1.19689 4.00684 1.36214 4.4519 1.67701 4.76424C1.99119 5.07726 2.40194 5.23276 2.90926 5.23276C3.24725 5.23276 3.53899 5.16171 3.78449 5.01827C4.02999 4.87484 4.20612 4.66169 4.31153 4.3775L5.43294 4.57724C5.29829 5.06452 5.00722 5.45596 4.56111 5.75289C4.115 6.04981 3.55939 6.19861 2.89702 6.19861ZM1.18465 2.55438L4.34689 2.55438C4.34417 2.09592 4.20408 1.71655 3.92662 1.4156C3.64984 1.11532 3.28125 0.964509 2.82086 0.964509C2.50123 0.964509 2.22173 1.03824 1.98303 1.18503C1.74365 1.33249 1.55528 1.52619 1.41655 1.76682C1.27782 2.00811 1.20097 2.27086 1.18465 2.55438Z"/> <path transform="translate(13.68, 2.23)" fill="#FFFFFF" d="M0 6.08936L0 0.0904859L1.14589 0.0904859L1.14589 1.0436L1.20913 1.0436C1.32066 0.720535 1.51652 0.465835 1.79806 0.2795C2.07892 0.0938367 2.39854 0 2.75489 0C2.83106 0 2.91946 0.00268087 3.02011 0.00804324C3.12076 0.0134056 3.20032 0.0201078 3.25881 0.0274811L3.25881 1.14481C3.21121 1.13141 3.12756 1.11666 3.00719 1.0999C2.88682 1.08315 2.76509 1.07443 2.64064 1.07443C2.22037 1.07443 1.87286 1.20111 1.59812 1.45515C1.32338 1.70917 1.18669 2.03224 1.18669 2.42569L1.18669 6.08936L0 6.08936Z"/> <path transform="translate(17.74, 2.32)" fill="#FFFFFF" d="M5.6866 6.39214e-07L3.47983 5.99887L2.21153 5.99887L0 6.39214e-07L1.27238 6.39214e-07L2.81406 4.61679L2.87798 4.61679L4.41558 0L5.6866 6.39214e-07Z"/> <path transform="translate(24.22, 0)" fill="#FFFFFF" d="M0.748059 1.39415C0.542002 1.39415 0.36587 1.32578 0.219658 1.18905C0.0727671 1.05232 0 0.889442 0 0.699086C0 0.50672 0.0727645 0.341835 0.219658 0.205101C0.366549 0.0683672 0.542682 0 0.748059 0C0.952074 0 1.12753 0.0683672 1.2751 0.205101C1.42335 0.341835 1.4968 0.50672 1.4968 0.699086C1.4968 0.889441 1.42335 1.05232 1.2751 1.18905C1.12753 1.32645 0.952074 1.39415 0.748059 1.39415ZM0.150292 8.31933L0.150292 2.32046L1.33562 2.32046L1.33562 8.31933L0.150292 8.31933Z"/> <path transform="translate(26.6, 2.24)" fill="#FFFFFF" d="M2.83718 6.19928C2.24825 6.19928 1.74161 6.06724 1.31794 5.80315C0.893588 5.5384 0.567843 5.17378 0.340706 4.70727C0.113569 4.24144 0 3.70724 0 3.10534C0 2.49338 0.11629 1.95449 0.348867 1.48866C0.581444 1.02282 0.909231 0.6582 1.33358 0.394786C1.75726 0.131372 2.25437 0 2.82494 0C3.28737 0 3.69949 0.0837831 4.06127 0.25202C4.42306 0.420257 4.71617 0.65552 4.93922 0.957139C5.16228 1.25943 5.29489 1.61266 5.33773 2.01549L4.18436 2.01549C4.12112 1.73465 3.97627 1.49268 3.75049 1.28892C3.52471 1.08583 3.22277 0.98462 2.84466 0.98462C2.35026 0.98462 1.95243 1.17229 1.64981 1.54898C1.34719 1.92567 1.19621 2.43507 1.19621 3.07786C1.19621 3.73204 1.34583 4.25082 1.64369 4.63421C1.94223 5.01827 2.3421 5.21064 2.84466 5.21064C3.18265 5.21064 3.47235 5.11881 3.71241 4.93717C3.95315 4.75486 4.11024 4.50217 4.18368 4.1791L5.33705 4.1791C5.29489 4.56719 5.16636 4.91371 4.95282 5.21801C4.73929 5.52298 4.45298 5.76227 4.0946 5.93654C3.73757 6.11215 3.31798 6.19928 2.83718 6.19928Z"/> <path transform="translate(32.93, 2.24)" fill="#FFFFFF" d="M2.89702 6.19861C2.29994 6.19861 1.78445 6.07126 1.35194 5.81589C0.91807 5.56119 0.584845 5.2026 0.350906 4.74011C0.116967 4.2783 0 3.7374 0 3.1174C0 2.50277 0.11697 1.9612 0.350906 1.49268C0.584845 1.02416 0.91195 0.658201 1.33358 0.394786C1.75453 0.131372 2.24825 0 2.81337 0C3.27377 0 3.70832 0.10054 4.11976 0.30296C4.53051 0.504709 4.86509 0.825766 5.12215 1.26747C5.37989 1.70851 5.50842 2.29097 5.50842 3.01485L5.50842 3.42841L1.18125 3.42841C1.19689 4.00684 1.36214 4.4519 1.67701 4.76424C1.99119 5.07726 2.40194 5.23276 2.90926 5.23276C3.24725 5.23276 3.53899 5.16171 3.78449 5.01827C4.02999 4.87484 4.20612 4.66169 4.31153 4.3775L5.43294 4.57724C5.29829 5.06452 5.00722 5.45596 4.56111 5.75289C4.115 6.04981 3.56007 6.19861 2.89702 6.19861ZM1.18465 2.55438L4.34689 2.55438C4.34417 2.09592 4.20408 1.71655 3.92662 1.4156C3.64984 1.11532 3.28125 0.964509 2.82086 0.964509C2.50123 0.964509 2.22173 1.03824 1.98303 1.18503C1.74365 1.33249 1.55528 1.52619 1.41655 1.76682C1.27782 2.00744 1.20097 2.27086 1.18465 2.55438Z"/> <g transform="translate(39.76, 0)"> <path transform="translate(0, 0)" fill="#FFFFFF" d="M9.63974 0L0 19L3.57436 19L13.2141 0L9.63974 0Z"/> <path transform="translate(9.01, 0)" fill="#FFFFFF" d="M9.63974 0L0 19L3.57367 19L13.2141 0L9.63974 0Z"/> <path transform="translate(18.02, 0)" fill="#FFFFFF" d="M9.63906 0L0 19L3.57368 19L13.2134 0L9.63906 0Z"/> <path transform="translate(27.02, 0)" fill="#FFFFFF" d="M9.63974 0L0 19L3.57436 19L13.2141 0L9.63974 0Z"/> </g> </g> </svg>