<svg xmlns="http://www.w3.org/2000/svg" width="17" height="11" viewBox="0 0 17 11" fill="none"> <path d="M1 10.5C0.45 10.5 0 10.05 0 9.5V7.5C0 6.95 0.45 6.5 1 6.5H2C2.55 6.5 3 6.95 3 7.5V9.5C3 10.05 2.55 10.5 2 10.5H1ZM5.75 10.5C5.2 10.5 4.75 10.05 4.75 9.5V5.5C4.75 4.95 5.2 4.5 5.75 4.5H6.75C7.3 4.5 7.75 4.95 7.75 5.5V9.5C7.75 10.05 7.3 10.5 6.75 10.5H5.75ZM10.5 10.5C9.95 10.5 9.5 10.05 9.5 9.5V3.5C9.5 2.95 9.95 2.5 10.5 2.5H11.5C12.05 2.5 12.5 2.95 12.5 3.5V9.5C12.5 10.05 12.05 10.5 11.5 10.5H10.5ZM15.25 10.5C14.7 10.5 14.25 10.05 14.25 9.5V1.5C14.25 0.95 14.7 0.5 15.25 0.5H16.25C16.8 0.5 17.25 0.95 17.25 1.5V9.5C17.25 10.05 16.8 10.5 16.25 10.5H15.25Z" fill="#000000"/> </svg>