<svg xmlns="http://www.w3.org/2000/svg" width="20" height="20" viewBox="0 0 20 20" fill="none"> <path d="M20 19.2708L13.2292 12.6042C14.4792 11.25 15.2083 9.47917 15.2083 7.5C15.2083 6.45833 15 5.52083 14.6875 4.58333L13.6458 5C13.9583 5.83333 14.1667 6.66667 14.1667 7.5C14.1667 11.0417 11.25 13.9583 7.70833 13.9583C4.16667 13.9583 1.04167 11.1458 1.04167 7.60417C1.04167 3.95833 3.95833 1.04167 7.60417 1.04167C9.47917 1.04167 11.25 1.875 12.5 3.22917L13.3333 2.5C11.875 0.9375 9.79167 0 7.60417 0C3.4375 0 0 3.4375 0 7.60417C0 11.7708 3.4375 15.2083 7.60417 15.2083C9.47917 15.2083 11.1458 14.5833 12.3958 13.4375L19.1667 20.1042L20 19.2708Z" fill="#0303B8"/> </svg>