<svg xmlns="http://www.w3.org/2000/svg" width="23" height="20" viewBox="0 0 23 20" fill="none"> <path d="M15.7 16.6C15.3 16.6 14.9 17 14.9 17.4C14.9 17.8 15.3 18.2 15.7 18.2C16.1 18.2 16.5 17.8 16.5 17.4C16.5 17 16.1 16.6 15.7 16.6ZM8.7 16.6C8.3 16.6 7.9 17 7.9 17.4C7.9 17.8 8.3 18.2 8.7 18.2C9.1 18.2 9.5 17.8 9.5 17.4C9.5 17 9.2 16.6 8.7 16.6ZM15.7 15.5C16.8 15.5 17.6 16.4 17.6 17.4C17.6 18.5 16.7 19.3 15.7 19.3C14.7 19.3 13.8 18.4 13.8 17.4C13.8 16.3 14.6 15.5 15.7 15.5ZM8.7 15.5C9.8 15.5 10.6 16.4 10.6 17.4C10.6 18.5 9.7 19.3 8.7 19.3C7.6 19.3 6.8 18.4 6.8 17.4C6.8 16.3 7.6 15.5 8.7 15.5ZM13.6 9L12 13.2L17.5 13.2L19.1 9L13.6 9ZM15.4 3.9L14 7.8L19.5 7.8L21 3.9L15.4 3.9ZM0 0L3.5 0L6.8 13.2L10.9 13.2L12.4 9L8.5 9L8.5 7.8L12.7 7.8L14.1 3.9L6.8 3.9L6.8 2.8L22.5 2.8L18.2 14.4L5.9 14.4L2.6 1.1L0 1.1L0 0Z" fill="#0303B8"/> </svg>