<svg xmlns="http://www.w3.org/2000/svg" width="24" height="22" viewBox="0 0 24 22" fill="none"> <path d="M23.6092 10.6053L12.9295 0.308892C12.3955 -0.102964 11.5946 -0.102964 11.1941 0.308892L0.38086 10.6053C-0.420118 11.2917 0.113867 12.5273 1.31534 12.5273L2.91729 12.5273L2.91729 20.7644C2.91729 21.4509 3.58477 22 4.25226 22L9.32512 22L9.32512 17.195C9.32512 16.0967 10.2596 15.1357 11.5946 15.1357L12.6625 15.1357C13.864 15.1357 14.932 16.0967 14.932 17.195L14.932 22L20.0048 22C20.8058 22 21.3398 21.4509 21.3398 20.7644L21.3398 12.5273L22.9418 12.5273C23.8762 12.5273 24.4102 11.2917 23.6092 10.6053Z" fill="#040000"/> </svg>