<svg xmlns="http://www.w3.org/2000/svg" width="35" height="30" viewBox="0 0 35 30" fill="none"> <path d="M0 0L11.3483 0L11.3483 1.68539L0 1.68539L0 0Z" fill="#0303B8" transform="translate(9.1 4.83)"/> <path d="M9.10112 21.0112L9.10112 25.8427L25.0562 25.8427L34.2697 29.8876L30.1124 21.4607L30.1124 9.66292L25.2809 9.66292L25.2809 0L4.26966 0L4.26966 11.9101L0 19.4382L9.10112 15.7303L9.10112 17.7528L10.6742 17.7528L10.6742 14.6067L10.6742 11.3483L28.427 11.3483L28.427 21.7978C28.427 21.9101 28.427 22.0225 28.5393 22.1348L30.7865 26.6292L25.5056 24.2697C25.3933 24.2697 25.2809 24.1573 25.1685 24.1573L10.5618 24.1573L10.5618 20.8989L9.10112 20.8989L9.10112 21.0112ZM9.10112 9.66292L9.10112 13.9326L3.70786 16.0674L5.8427 12.3595C5.95506 12.2472 5.95506 12.1348 5.95506 11.9101L5.95506 1.57303L23.7079 1.57303L23.7079 9.66292L9.10112 9.66292Z" fill="#0303B8"/> <path d="M0 0L11.3483 0L11.3483 1.57303L0 1.57303L0 0Z" fill="#0303B8" transform="translate(13.93 14.61)"/> <path d="M0 0L11.3483 0L11.3483 1.57303L0 1.57303L0 0Z" fill="#0303B8" transform="translate(13.93 19.44)"/> </svg>