<svg xmlns="http://www.w3.org/2000/svg" width="24" height="24" viewBox="0 0 24 24" fill="none"> <path d="M20.5073 0L3.61893 0C1.60841 0 0 1.6 0 3.6L0 20.2667C0 22.4 1.60841 24 3.61893 24L20.3733 24C22.3838 24 23.9922 22.4 23.9922 20.4L23.9922 3.6C24.1262 1.6 22.5178 0 20.5073 0ZM19.9712 17.6C19.8371 17.7333 19.8371 18 19.569 18.1333C19.301 18.2667 19.1669 18.5333 18.8989 18.6667C18.6308 18.8 18.3627 18.9333 17.9606 19.0667C16.3522 19.6 14.7438 19.4667 13.1354 18.9333C11.527 18.4 9.91856 17.3333 8.57821 16C7.23787 14.6667 6.16559 13.0667 5.62945 11.3333C5.09331 9.86667 4.95928 8.13333 5.49542 6.66667C5.62945 6.26667 5.76349 6 5.89752 5.73333C6.03156 5.46667 6.29962 5.2 6.43366 5.06667C6.56769 4.8 6.70173 4.8 6.9698 4.66667C7.10383 4.66667 7.3719 4.53333 7.50594 4.53333C7.774 4.53333 7.90804 4.53333 8.04207 4.66667L8.44418 5.06667L10.8568 8C10.9908 8.13333 10.9908 8.26667 11.1249 8.4C11.1249 8.53333 11.1249 8.8 11.1249 8.93333C11.1249 9.06667 10.9908 9.33333 10.9908 9.46667C10.7228 9.73333 10.7228 9.86667 10.4547 9.86667L9.38242 10.6667C9.38242 10.8 9.24839 11.2 9.51645 11.6C10.0526 12.2667 10.4547 12.9333 11.1249 13.4667C11.661 14 12.3312 14.5333 13.0014 15.0667C13.4035 15.3333 13.8056 15.3333 13.9396 15.3333L15.1459 14C15.2799 13.6 15.548 13.6 15.682 13.6C15.8161 13.6 16.0841 13.6 16.2182 13.6C16.3522 13.6 16.4862 13.7333 16.6203 13.8667L19.435 16L19.569 16.1333C19.7031 16.2667 19.7031 16.2667 19.8371 16.5333L19.8371 16.6667C19.9712 16.9333 19.9712 17.0667 19.9712 17.2C20.1052 17.3333 20.1052 17.4667 19.9712 17.6Z" fill="#DADADA"/> </svg>