<svg xmlns="http://www.w3.org/2000/svg" width="30" height="30" viewBox="0 0 30 30" fill="none"> <path d="M30 26.9792L30 8.95833L28.4375 8.95833L28.4375 7.5L26.9792 7.5L26.9792 8.95833L3.02083 8.95833L3.02083 1.45833L26.9792 1.45833L26.9792 4.375L28.4375 4.375L28.4375 0L1.45833 0L1.45833 8.95833L0 8.95833L0 26.875L3.75 26.875L3.75 28.3333L2.5 28.3333L2.5 29.7917L6.5625 29.7917L6.5625 28.3333L5.3125 28.3333L5.3125 26.875L14.4792 26.875L14.4792 28.3333L13.2292 28.3333L13.2292 29.7917L17.2917 29.7917L17.2917 28.3333L16.0417 28.3333L16.0417 26.875L24.7917 26.875L24.7917 28.3333L23.4375 28.3333L23.4375 29.7917L27.5 29.7917L27.5 28.3333L26.25 28.3333L26.25 26.875L30 26.875L30 26.9792ZM1.45833 10.5208L28.4375 10.5208L28.4375 25.5208L1.45833 25.5208L1.45833 10.5208Z" fill="#0303B8"/> <path d="M0 6.77083L8.22917 6.77083L8.22917 0L0 0L0 6.77083ZM1.45834 1.5625L6.66667 1.5625L6.66667 5.3125L1.45834 5.3125L1.45834 1.5625Z" fill="#0303B8" transform="translate(18.02 12.71)"/> <path d="M0 0L3.75 0L3.75 1.45833L0 1.45833L0 0Z" fill="#0303B8" transform="translate(3.75 21.77)"/> <path d="M0 0L3.75 0L3.75 1.45833L0 1.45833L0 0Z" fill="#0303B8" transform="translate(8.96 21.77)"/> <path d="M0 0L3.75 0L3.75 1.45833L0 1.45833L0 0Z" fill="#0303B8" transform="translate(14.27 21.77)"/> </svg>