<svg width="21" height="18" viewBox="0 0 21 18" fill="none" xmlns="http://www.w3.org/2000/svg">
    <path fill-rule="evenodd" clip-rule="evenodd" d="M9 18L11.25 18L9 18L11.25 18Q11.7422 18 12.0586 17.6836Q12.375 17.3672 12.375 16.875L12.375 14.625Q12.375 14.1328 12.0586 13.8164Q11.7422 13.5 11.25 13.5L9 13.5Q8.50781 13.5 8.19141 13.8164Q7.875 14.1328 7.875 14.625L7.875 16.875Q7.875 17.3672 8.19141 17.6836Q8.50781 18 9 18ZM2.25 15.75L6.75 15.75L2.25 15.75L6.75 15.75L6.75 14.0625Q6.78516 13.3594 7.24219 12.8672Q7.73438 12.4102 8.4375 12.375L11.8125 12.375Q12.5156 12.4102 13.0078 12.8672Q13.4648 13.3594 13.5 14.0625L13.5 15.75L18 15.75Q18.9492 15.7148 19.582 15.082Q20.2148 14.4492 20.25 13.5L20.25 2.25Q20.2148 1.30078 19.582 0.667969Q18.9492 0.0351562 18 0L2.25 0Q1.30078 0.0351562 0.667969 0.667969Q0.0351562 1.30078 0 2.25L0 13.5Q0.0351562 14.4492 0.667969 15.082Q1.30078 15.7148 2.25 15.75ZM6.1875 2.63672Q6.22266 2.28516 6.57422 2.25L13.6758 2.25Q14.0273 2.28516 14.0625 2.63672Q14.0625 3.41016 13.5 3.9375Q12.9727 4.46484 12.1992 4.5L8.08594 4.5Q7.27734 4.46484 6.75 3.9375Q6.22266 3.41016 6.1875 2.63672ZM10.125 5.625Q11.3906 5.66016 12.0586 6.75Q12.6914 7.875 12.0586 9Q11.3906 10.0898 10.125 10.125Q8.85938 10.0898 8.19141 9Q7.55859 7.875 8.19141 6.75Q8.85938 5.66016 10.125 5.625Z" fill="#FFFFFF"/>
</svg>